<?xml version="1.0" encoding="utf-8"?>
<!-- Generator: Adobe Illustrator 21.0.2, SVG Export Plug-In . SVG Version: 6.00 Build 0)  -->
<svg version="1.1" id="Layer_2" xmlns="http://www.w3.org/2000/svg" xmlns:xlink="http://www.w3.org/1999/xlink" x="0px" y="0px"
	 viewBox="0 0 3024 2160" style="enable-background:new 0 0 3024 2160;" xml:space="preserve">
<style type="text/css">
	.st0{fill:none;stroke:#000000;stroke-width:0.5;stroke-linecap:round;stroke-linejoin:round;}
</style>
<path class="st0" d="M1461.8,1769h-244c-0.1,0-0.2-0.1-0.2-0.2v-152.5c0-0.1,0.1-0.2,0.2-0.2h231.6v-64.2h-10.4
	c-0.1,0-0.2-0.1-0.2-0.2v-44.2c0-0.1,0.1-0.2,0.2-0.2h10.4v-6.7h-153.7c-0.1,0-0.2-0.1-0.2-0.2v-128.3c0-0.1,0.1-0.2,0.2-0.2h35.9
	v-53c0-0.1,0.1-0.2,0.2-0.2h78V1295c0-0.1,0.1-0.2,0.2-0.2h39.6v-91.1l-14.9-3.7c0,0,0,0,0,0v0c0,0,0,0,0,0c0,0,0,0,0,0c0,0,0,0,0,0
	l0,0c0,0,0,0,0,0h0c0,0,0,0,0,0c0,0,0,0,0,0c0,0,0,0,0,0c0,0,0,0,0,0c0,0,0,0,0,0l0,0c-0.1,0-0.1-0.1-0.1-0.2l0,0c0,0,0,0,0,0l0,0
	c0,0,0,0,0,0c0,0,0,0,0,0l0,0c0,0,0,0,0,0l0,0c0,0,0,0,0,0c0,0,0,0,0,0c0,0,0,0,0,0l0,0c0,0,0,0,0,0c0,0,0,0,0,0c0,0,0,0,0,0
	c0,0,0,0,0,0c0,0,0,0,0,0v0c0,0,0,0,0,0c0,0,0,0,0,0c0,0,0,0,0,0l0,0c0,0,0,0,0,0v0c0,0,0,0,0,0l0,0c0,0,0,0,0,0l0,0
	c0,0,0-0.1,0-0.1v0l0,0c0,0,0,0,0,0l1.7-5.9l-371.6-92.4c0,0,0,0,0,0l-29.8-7.8c0,0,0,0,0,0l-169.7-42c0,0-0.1,0-0.1,0c0,0,0,0,0,0
	c0,0,0,0,0,0c0,0,0,0,0,0l0,0c0,0,0,0,0,0c0,0,0,0,0,0l0,0c-0.1-0.1-0.1-0.1-0.1-0.2l0,0c0,0,0,0,0,0s0,0,0,0v0c0,0,0,0,0,0
	c0,0,0,0,0,0l12-40.8l-32.6-8.3c0,0,0,0,0,0c-0.1,0-0.2-0.2-0.2-0.3l24.5-84.7c0-0.1,0.1-0.1,0.2-0.2l0,0c0,0,0,0,0,0l0,0
	c0,0,0.1,0,0.1,0l136.9,34.2l9-30.6c0,0,0,0,0,0c0,0,0,0,0,0c0,0,0,0,0,0c0,0,0,0,0,0c0-0.1,0.1-0.1,0.1-0.1c0,0,0,0,0,0
	c0,0,0,0,0,0c0,0,0,0,0,0c0,0,0,0,0,0c0,0,0,0,0,0c0,0,0.1,0,0.1,0L1143,952c0,0,0.1,0,0.1,0.1c0,0,0,0,0,0c0.1,0.1,0.1,0.2,0.1,0.2
	l-33.5,115.8c0,0,0,0.1-0.1,0.1l0,0c0,0,0,0,0,0c0,0,0,0,0,0c0,0,0,0,0,0c0,0,0,0,0,0h0c0,0-0.1,0.1-0.1,0.1h0c0,0,0,0,0,0
	c0,0,0,0,0,0c0,0,0,0,0,0c0,0,0,0-0.1,0l-32.5-8l-6.5,22.6l371.2,92.6l1.2-4.1l0,0c0-0.1,0-0.1,0.1-0.1l0,0c0,0,0,0,0,0c0,0,0,0,0,0
	h0c0,0,0,0,0,0c0,0,0,0,0,0c0,0,0,0,0,0c0,0,0,0,0,0c0,0,0,0,0,0c0,0,0,0,0,0c0,0,0,0,0,0c0,0,0,0,0,0c0,0,0,0,0,0c0,0,0,0,0,0
	c0,0,0,0,0,0h0c0,0,0,0,0,0c0,0,0.1,0,0.2,0l0,0l6.7,1.7V951.5h-209.9c-0.1,0-0.2-0.1-0.2-0.2v-69.5h-39.3c-0.1,0-0.2-0.1-0.2-0.2
	v-41.5h-44.6c-0.1,0-0.2-0.1-0.2-0.2V733.4c0-0.1,0.1-0.2,0.2-0.2h12.2v-28.7c0-0.1,0.1-0.2,0.2-0.2h73.7v-56.1
	c0-0.1,0.1-0.2,0.2-0.2h140.6c0.1,0,0.2,0.1,0.2,0.2v56.1h67.1V557.4h-60.8v20c0,0.1-0.1,0.2-0.2,0.2h-138.5c-0.1,0-0.2-0.1-0.2-0.2
	V540c0-0.1,0.1-0.2,0.2-0.2h50.3V516h-100v41.2c0,0.1-0.1,0.2-0.2,0.2h-86.6c-0.1,0-0.2-0.1-0.2-0.2v-11.9h-25.8
	c-0.1,0-0.2-0.1-0.2-0.2v-17.5h-18v46.1c0,0.1-0.1,0.2-0.2,0.2h-10.4v5.4c0,0.1-0.1,0.2-0.2,0.2h-36.8c-0.1,0-0.2-0.1-0.2-0.2V467.5
	c0-0.1,0.1-0.2,0.2-0.2h50.9v-16.9c0-0.1,0.1-0.2,0.2-0.2h14.6v-20c0-0.1,0.1-0.2,0.2-0.2h25.8V418c0-0.1,0.1-0.2,0.2-0.2h86.6
	c0.1,0,0.2,0.1,0.2,0.2v41.2h100v-15.9c0-0.1,0.1-0.2,0.2-0.2h149.2c0.1,0,0.2,0.1,0.2,0.2v41.2h11.5c0.1,0,0.2,0.1,0.2,0.2v431.5
	h12.8V778.5c0-0.1,0.1-0.2,0.2-0.2h315.9c0.1,0,0.2,0.1,0.2,0.2v20.9h12.2c0.1,0,0.2,0.1,0.2,0.2v151.6c0,0.1-0.1,0.2-0.2,0.2
	h-328.3c-0.1,0-0.2-0.1-0.2-0.2v-25.6h-12.8V1176l11.2,2.9c0,0,0.1,0,0.1,0.1c0,0,0,0,0,0c0,0,0,0,0,0c0,0,0,0,0,0c0,0,0,0,0,0
	c0,0,0,0,0,0c0,0,0,0,0,0c0,0,0,0,0,0c0,0,0,0,0,0c0,0,0,0,0,0l0,0c0,0,0,0,0,0v0c0,0.1,0.1,0.1,0,0.2l-5.6,19.4l112.2,27.9
	l7.3-23.7c0,0,0,0,0,0l0,0c0,0,0,0,0,0c0,0,0,0,0,0l0,0c0,0,0,0,0,0l0,0c0-0.1,0.1-0.1,0.2-0.1l0,0c0,0,0,0,0,0h0c0,0,0,0,0,0
	c0,0,0,0,0,0c0,0,0,0,0,0c0,0,0,0,0,0c0,0,0,0,0,0c0,0,0,0,0,0h0c0,0,0,0,0,0c0,0,0,0,0,0l0,0c0,0,0,0,0,0l0,0c0,0,0,0,0,0
	c0,0,0,0,0,0h0c0,0,0,0,0,0c0,0,0,0,0,0c0,0,0,0,0,0c0,0,0,0,0,0l114.5,30.7v-22.1c0-0.1,0.1-0.2,0.2-0.2h38.4
	c0.1,0,0.2,0.1,0.2,0.2v13.8h89.8c0.1,0,0.2,0.1,0.2,0.2v28.1l11.3,2.7l5-18.1c0,0,0-0.1,0.1-0.1c0,0,0,0,0,0c0,0,0,0,0,0
	c0,0,0,0,0,0l0,0c0,0,0,0,0,0c0,0,0,0,0,0c0,0,0,0,0,0c0,0,0,0,0,0v0c0,0,0,0,0,0c0.1,0,0.1-0.1,0.2,0l50.9,12.7l2.6-9.1
	c0-0.1,0.2-0.2,0.3-0.2l18.4,4.7c0,0,0,0,0.1,0c0,0,0,0,0,0c0,0,0,0,0,0l0,0c0,0,0,0,0,0c0,0,0.1,0.1,0.1,0.1c0,0,0,0,0,0s0,0,0,0v0
	c0,0,0,0,0,0c0,0,0,0,0,0h0c0,0,0,0,0,0h0c0,0,0,0.1,0,0.1c0,0,0,0,0,0l-1.5,5.3l34.3,8.6l9.2-33.1c0,0,0,0,0-0.1c0,0,0,0,0,0
	c0,0,0,0,0,0c0,0,0,0,0,0c0,0,0,0,0,0l0,0c0.1-0.1,0.1-0.1,0.2-0.1l9.8,1.2l7.1-24.4l0,0v0c0,0,0-0.1,0-0.1c0,0,0,0,0,0l0,0
	c0.1-0.1,0.2-0.1,0.3-0.1l50.8,23.3c0,0,0,0,0.1,0c0,0,0,0,0,0c0,0,0,0,0,0c0,0,0,0,0,0l0,0c0,0,0,0,0,0l31.2,44.2c0,0,0,0,0,0
	c0,0,0,0,0,0c0,0,0,0,0,0.1c0,0,0,0,0,0l0,0c0,0,0,0,0,0l0,0c0,0,0,0.1,0,0.1c0,0,0,0,0,0c0,0,0,0,0,0c0,0,0,0,0,0
	c0,0,0,0.1-0.1,0.1c0,0,0,0,0,0c0,0,0,0,0,0c0,0,0,0-0.1,0.1c0,0,0,0,0,0l-25.2,9.6l1.6,9.1c0,0.1,0,0.1,0,0.2c0,0,0,0-0.1,0.1
	c0,0,0,0,0,0c0,0,0,0-0.1,0l-72.5,27.3l-5.3,18.5c0,0,0,0.1,0,0.1c0,0,0,0,0,0c0,0,0,0,0,0c0,0-0.1,0.1-0.1,0.1v0c0,0,0,0,0,0
	c0,0,0,0,0,0v0c0,0,0,0,0,0c0,0,0,0,0,0c0,0,0,0,0,0c0,0,0,0,0,0h0c0,0,0,0,0,0h0c0,0,0,0,0,0h0c0,0,0,0,0,0c0,0,0,0,0,0
	c0,0,0,0,0,0v0c0,0,0,0,0,0c0,0,0,0,0,0h0c0,0,0,0,0,0l0,0c0,0,0,0,0,0l0,0c0,0,0,0-0.1,0l0,0c0,0,0,0,0,0c0,0,0,0,0,0h0
	c0,0,0,0,0,0l0,0l-38.5-9.6l-62.7-15.5l-17.3,60.8c0,0,0,0,0,0c0,0,0,0,0,0c0,0,0,0,0,0c0,0,0,0,0,0c0,0,0,0.1-0.1,0.1c0,0,0,0,0,0
	c0,0,0,0,0,0c0,0,0,0,0,0c0,0-0.1,0-0.1,0.1h0c0,0,0,0,0,0l0,0c0,0,0,0,0,0h-9.9v247.2c0,0.1-0.1,0.2-0.2,0.2h-89.8v22.2
	c0,0.1-0.1,0.2-0.2,0.2h-38.4c-0.1,0-0.2-0.1-0.2-0.2v-70.7h-240.1v197.4C1462.1,1768.9,1462,1769,1461.8,1769z"/>
<path class="st0" d="M1218.1,1768.5h243.5v-197.2H1450v44.9c0,0.1-0.1,0.2-0.2,0.2h-231.6V1768.5z"/>
<rect x="1702.7" y="1211.5" class="st0" width="37.9" height="430.4"/>
<path class="st0" d="M1741.1,1619.4h89.5v-365.8c0,0,0,0,0,0v-28.1h-89.5V1619.4z"/>
<path class="st0" d="M1450,1570.8h252.2v-275.6h-240.4c-0.1,0-0.2-0.1-0.2-0.2v-88.4l-11.2-2.8v162.2c0,0.1-0.1,0.2-0.2,0.2h-117.9
	v5.7c0,0.1-0.1,0.2-0.2,0.2h-35.9v127.8h153.4V1469c0-0.1,0.1-0.2,0.2-0.2s0.2,0.1,0.2,0.2V1570.8z"/>
<rect x="1439.3" y="1507.5" class="st0" width="10.2" height="43.7"/>
<path class="st0" d="M1831.1,1371.9h9.7l17.3-60.8c0,0,0-0.1,0.1-0.1c0,0,0,0,0,0c0,0,0.1,0,0.1-0.1c0,0,0,0,0,0c0,0,0,0,0,0h0
	c0,0,0,0,0,0c0,0,0,0,0,0h0c0,0,0.1,0,0.1,0l62.9,15.6c0,0,0,0,0,0l38.3,9.6l5.2-18.4c0-0.1,0-0.1,0.1-0.1l0,0c0,0,0,0,0,0
	c0,0,0,0,0,0c0,0,0,0,0,0c0,0,0,0,0,0c0,0,0,0,0.1,0l72.5-27.3l-1.6-9.1c0,0,0,0,0,0c0,0,0,0,0,0c0,0,0,0,0,0c0,0,0-0.1,0-0.1
	c0,0,0,0,0,0l0,0c0,0,0.1-0.1,0.1-0.1c0,0,0,0,0,0c0,0,0,0,0,0c0,0,0,0,0,0l25.1-9.5l-30.9-43.9l-50.5-23.2l-7,24.3c0,0,0,0,0,0.1
	l0,0c0,0,0,0,0,0c0,0,0,0,0,0c0,0,0,0,0,0c0,0,0,0,0,0l0,0c0,0,0,0-0.1,0.1c0,0,0,0,0,0c0,0,0,0,0,0c0,0,0,0,0,0c0,0,0,0,0,0
	c0,0,0,0-0.1,0l0,0c0,0,0,0,0,0c0,0,0,0,0,0c0,0,0,0,0,0c0,0,0,0,0,0c0,0-0.1,0-0.1,0l-9.8-1.2l-9.3,33.1c0,0,0,0,0,0.1c0,0,0,0,0,0
	c0,0,0,0,0,0c-0.1,0.1-0.2,0.1-0.3,0.1l-34.8-8.7c0,0,0,0,0,0c-0.1,0-0.2-0.2-0.2-0.3l1.5-5.4l-17.9-4.5l-2.6,9.1c0,0,0,0.1,0,0.1
	c0,0,0,0,0,0c0,0-0.1,0.1-0.1,0.1l0,0c0,0,0,0,0,0c0,0,0,0,0,0c0,0,0,0,0,0c0,0,0,0,0,0s0,0,0,0c0,0,0,0,0,0h0c0,0,0,0,0,0
	c0,0,0,0,0,0c0,0,0,0,0,0c0,0,0,0,0,0c0,0,0,0,0,0c0,0,0,0,0,0c0,0,0,0,0,0s0,0,0,0s0,0,0,0h0c0,0,0,0,0,0h0c0,0,0,0,0,0l0,0
	c0,0-0.1,0-0.1,0l-50.9-12.7l-5,18.1c0,0,0,0.1,0,0.1l0,0c0,0,0,0,0,0l0,0c0,0,0,0-0.1,0.1c0,0,0,0,0,0c0,0,0,0,0,0l0,0c0,0,0,0,0,0
	l0,0c0,0,0,0,0,0l0,0c0,0,0,0,0,0l0,0c0,0,0,0,0,0l0,0c0,0,0,0,0,0h0c0,0,0,0,0,0c0,0,0,0,0,0c0,0,0,0,0,0c0,0,0,0,0,0c0,0,0,0,0,0
	c0,0,0,0,0,0s0,0,0,0c0,0,0,0,0,0c0,0,0,0,0,0c0,0,0,0,0,0h0c0,0,0,0,0,0c0,0,0,0,0,0s0,0,0,0s0,0,0,0s0,0,0,0c0,0,0,0,0,0
	c0,0,0,0,0,0h0c0,0,0,0,0,0l0,0c0,0,0,0,0,0l0,0c0,0,0,0,0,0c0,0,0,0,0,0h0c0,0,0,0,0,0h0c0,0,0,0,0,0c0,0,0,0,0,0l-11.4-2.7V1371.9
	z"/>
<path class="st0" d="M1332.2,1365.7h117.7v-70.5h-39.4v23.4c0,0.1-0.1,0.2-0.2,0.2h-78V1365.7z"/>
<path class="st0" d="M1462.1,1294.7h240.1v-60.9l-114.4-30.7l-7.3,23.7l0,0c0,0,0,0,0,0l0,0c0,0,0,0,0,0v0c0,0,0,0,0,0l0,0
	c0,0,0,0,0,0l0,0c0,0,0,0,0,0c0,0,0,0,0,0c0,0,0,0,0,0c0,0.1-0.1,0.1-0.2,0.1c0,0,0,0,0,0l0,0c0,0,0,0,0,0h0c0,0,0,0,0,0
	c0,0,0,0,0,0l-112.4-27.9l-2.3,8.1c0,0,0,0,0,0.1l0,0c0,0,0,0,0,0l0,0c0,0,0,0,0,0c0,0,0,0,0,0c0,0,0,0,0,0c0,0,0,0,0,0c0,0,0,0,0,0
	c0,0,0,0,0,0v0c-0.1,0.1-0.1,0.1-0.2,0.1h0c0,0,0,0,0,0c0,0,0,0,0,0c0,0,0,0,0,0l-3-0.8V1294.7z"/>
<path class="st0" d="M1462.1,1206.1l2.9,0.7l2.3-7.9c0,0-0.1-0.1-0.1-0.2c0,0,0,0,0-0.1c0-0.1,0.1-0.2,0.2-0.2l5.5-19.2l-22.7-5.9
	c-0.1,0.1-0.2,0-0.3-0.1l-6.6-1.7l-7.9,27.8l26.3,6.5C1461.8,1205.9,1462,1206,1462.1,1206.1z"/>
<polygon class="st0" points="1065.3,1100.8 1436.6,1193.2 1441.5,1175.9 1070.3,1083.3 "/>
<polygon class="st0" points="1450.3,1173 1461.6,1175.9 1461.6,484.9 1450.3,484.9 "/>
<path class="st0" d="M1035.2,1093l29.5,7.7l5-17.5c-0.1,0-0.2-0.2-0.1-0.3c0-0.1,0.1-0.2,0.3-0.2l6.5-22.7c0,0,0-0.1,0-0.1
	c0,0,0,0,0,0l24.3-84.7l-231.4-57.8l-24.3,84.2l32.6,8.3c0,0,0,0,0,0c0,0,0,0,0,0c0.1,0,0.2,0.1,0.2,0.3l0,0c0,0,0,0,0,0s0,0,0,0
	c0,0,0,0,0,0s0,0,0,0v0c0,0,0,0,0,0v0c0,0,0,0,0,0l0,0c0,0,0,0,0,0l0,0c0,0,0,0,0,0c0,0,0,0,0,0c0,0,0,0,0,0v0c0,0,0,0,0,0
	c0,0,0,0,0,0v0v0c0,0,0,0,0,0c0,0,0,0,0,0c0,0,0,0,0,0l-12,40.8L1035.2,1093C1035.2,1093,1035.2,1093,1035.2,1093z"/>
<path class="st0" d="M1077,1059.7l32.2,8l33.3-115.3l-127-31.6l-8.9,30.3l94.5,23.6c0.1,0,0.2,0.1,0.2,0.2c0,0,0,0,0,0c0,0,0,0,0,0
	c0,0,0,0,0,0c0,0,0,0,0,0c0,0,0,0.1,0,0.1L1077,1059.7z"/>
<path class="st0" d="M1475.4,951h327.8V799.9h-12.2c-0.1,0-0.2-0.1-0.2-0.2v-20.9h-315.4v137.7c0,0.1-0.1,0.2-0.2,0.2h-13.1v8.5
	h13.1c0.1,0,0.2,0.1,0.2,0.2V951z"/>
<path class="st0" d="M1240.2,951h209.7v-87.9h-45.6c-0.1,0-0.2-0.1-0.2-0.2V704.6h-235.8v28.7c0,0.1-0.1,0.2-0.2,0.2h-12.2v106h44.6
	c0.1,0,0.2,0.1,0.2,0.2v41.5h39.3c0.1,0,0.2,0.1,0.2,0.2V951z"/>
<rect x="1404.5" y="704.6" class="st0" width="45.4" height="158"/>
<rect x="1242.1" y="648.3" class="st0" width="140.1" height="55.8"/>
<rect x="1022" y="467.7" class="st0" width="36.3" height="111.3"/>
<path class="st0" d="M1250.5,577.1h138v-20c0-0.1,0.1-0.2,0.2-0.2h61V443.5h-148.7v15.9c0,0.1-0.1,0.2-0.2,0.2h-158.4v55.8h158.4
	c0.1,0,0.2,0.1,0.2,0.2V540c0,0.1-0.1,0.2-0.2,0.2h-50.3V577.1z"/>
<path class="st0" d="M1058.8,573.4h10.2v-46.1c0-0.1,0.1-0.2,0.2-0.2h18.5c0.1,0,0.2,0.1,0.2,0.2v17.5h25.8c0.1,0,0.2,0.1,0.2,0.2
	v11.9h86.1V516h-57.9c-0.1,0-0.2-0.1-0.2-0.2v-56.3c0-0.1,0.1-0.2,0.2-0.2h57.9v-40.9h-86.1v11.9c0,0.1-0.1,0.2-0.2,0.2H1088v20
	c0,0.1-0.1,0.2-0.2,0.2h-14.6v53.6c0,0.1-0.1,0.2-0.2,0.2h-14.1V573.4z"/>
<rect x="1058.8" y="467.7" class="st0" width="13.9" height="36.2"/>
<path class="st0" d="M1666.9,1469.2h-204.2c-0.1,0-0.2-0.1-0.2-0.2v-71.9c0-0.1,0.1-0.2,0.2-0.2h204.2c0.1,0,0.2,0.1,0.2,0.2v14.3
	c0,0.1-0.1,0.2-0.2,0.2h-11.1v42.8h11.1c0.1,0,0.2,0.1,0.2,0.2v14.3C1667.2,1469.1,1667.1,1469.2,1666.9,1469.2z"/>
<path class="st0" d="M1463,1468.7h203.7v-13.8h-11.1c-0.1,0-0.2-0.1-0.2-0.2v-43.3c0-0.1,0.1-0.2,0.2-0.2h11.1v-13.8H1463V1468.7z"
	/>
<path class="st0" d="M1186,612.5h-36.4c-0.1,0-0.2-0.1-0.2-0.2v-37.4c0-0.1,0.1-0.2,0.2-0.2h36.4c0.1,0,0.2,0.1,0.2,0.2v37.4
	C1186.3,612.4,1186.2,612.5,1186,612.5z"/>
<rect x="1149.8" y="575.1" class="st0" width="35.9" height="36.9"/>
</svg>
